<?xml version="1.0" encoding="UTF-8"?>
<svg id="Layer_1" xmlns="http://www.w3.org/2000/svg" version="1.1" xmlns:xlink="http://www.w3.org/1999/xlink" viewBox="0 0 142.3 69.1">
  <!-- Generator: Adobe Illustrator 29.5.0, SVG Export Plug-In . SVG Version: 2.1.0 Build 137)  -->
  <defs>
    <style>
      .st0 {
        fill: url(#linear-gradient2);
      }

      .st1 {
        clip-path: url(#clippath-21);
      }

      .st2 {
        clip-path: url(#clippath-6);
      }

      .st3 {
        clip-path: url(#clippath-7);
      }

      .st4 {
        clip-path: url(#clippath-17);
      }

      .st5 {
        clip-path: url(#clippath-15);
      }

      .st6 {
        clip-path: url(#clippath-18);
      }

      .st7 {
        clip-path: url(#clippath-4);
      }

      .st8 {
        fill: url(#linear-gradient10);
      }

      .st9 {
        clip-path: url(#clippath-22);
      }

      .st10 {
        clip-path: url(#clippath-23);
      }

      .st11 {
        clip-path: url(#clippath-9);
      }

      .st12 {
        clip-path: url(#clippath-10);
      }

      .st13 {
        fill: url(#linear-gradient1);
      }

      .st14 {
        clip-path: url(#clippath-25);
      }

      .st15 {
        clip-path: url(#clippath-27);
      }

      .st16 {
        fill: url(#linear-gradient9);
      }

      .st17 {
        clip-path: url(#clippath-11);
      }

      .st18 {
        fill: url(#linear-gradient8);
      }

      .st19 {
        fill: url(#linear-gradient11);
      }

      .st20 {
        fill: none;
      }

      .st21 {
        clip-path: url(#clippath-1);
      }

      .st22 {
        clip-path: url(#clippath-5);
      }

      .st23 {
        clip-path: url(#clippath-20);
      }

      .st24 {
        clip-path: url(#clippath-8);
      }

      .st25 {
        fill: url(#linear-gradient12);
      }

      .st26 {
        clip-path: url(#clippath-3);
      }

      .st27 {
        clip-path: url(#clippath-26);
      }

      .st28 {
        fill: url(#linear-gradient7);
      }

      .st29 {
        clip-path: url(#clippath-12);
      }

      .st30 {
        fill: url(#linear-gradient4);
      }

      .st31 {
        clip-path: url(#clippath-14);
      }

      .st32 {
        clip-path: url(#clippath-19);
      }

      .st33 {
        fill: url(#linear-gradient5);
      }

      .st34 {
        fill: url(#linear-gradient3);
      }

      .st35 {
        fill: url(#linear-gradient6);
      }

      .st36 {
        clip-path: url(#clippath-16);
      }

      .st37 {
        clip-path: url(#clippath-2);
      }

      .st38 {
        clip-path: url(#clippath-13);
      }

      .st39 {
        fill: url(#linear-gradient13);
      }

      .st40 {
        fill: url(#linear-gradient);
      }

      .st41 {
        clip-path: url(#clippath-24);
      }

      .st42 {
        clip-path: url(#clippath);
      }
    </style>
    <clipPath id="clippath">
      <polygon class="st20" points="3.4 1.4 3.4 45.2 16.4 45.2 16.4 31.5 30.5 31.5 30.5 19.1 16.6 19.1 16.6 13.3 32.9 13.3 32.7 1.4 3.4 1.4"/>
    </clipPath>
    <clipPath id="clippath-1">
      <rect class="st20" x="-3.2" y="-2.3" width="42.7" height="51.2" transform="translate(-6.9 7.6) rotate(-20)"/>
    </clipPath>
    <linearGradient id="linear-gradient" x1="1" y1="65.9" x2="2" y2="65.9" gradientTransform="translate(-3266.1 1144.3) rotate(70) scale(45.6 -45.6)" gradientUnits="userSpaceOnUse">
      <stop offset="0" stop-color="#fbeb97"/>
      <stop offset=".2" stop-color="#f2d781"/>
      <stop offset=".5" stop-color="#dfad58"/>
      <stop offset=".5" stop-color="#dfad58"/>
      <stop offset=".8" stop-color="#876637"/>
      <stop offset=".9" stop-color="#70542f"/>
      <stop offset="1" stop-color="#674d2d"/>
    </linearGradient>
    <clipPath id="clippath-2">
      <polygon class="st20" points="100.8 1.2 95.7 10.5 90 1.2 74.4 1.2 87.8 22.1 73.5 45.2 73.5 45.2 89 45.2 95.4 35.5 101.9 45.2 117.7 45.2 117.7 45.2 103 22.2 116.6 1.2 100.8 1.2"/>
    </clipPath>
    <clipPath id="clippath-3">
      <rect class="st20" x="67.3" y="-5" width="56.6" height="56.5" transform="translate(-2.2 34.1) rotate(-20)"/>
    </clipPath>
    <linearGradient id="linear-gradient1" x1="1" y1="66.5" x2="2" y2="66.5" gradientTransform="translate(-3950 1407.6) rotate(70) scale(56.2 -56.2)" xlink:href="#linear-gradient"/>
    <clipPath id="clippath-4">
      <path class="st20" d="M32.5,23.2c0,12.3,10.9,22.2,24.3,22.2s24.2-9.9,24.2-22.2S70.2,1,56.8,1s-24.3,9.9-24.3,22.2M52.8,33.6V13.3s-.2-3.1,4.1-3.1,4,3.1,4,3.1v18.7c0,2.1-.2,3.9-4.2,3.9s-3.9-2.2-3.9-2.2Z"/>
    </clipPath>
    <clipPath id="clippath-5">
      <rect class="st20" x="26.4" y="-5.9" width="60.8" height="58.3" transform="translate(-4.5 20.8) rotate(-20)"/>
    </clipPath>
    <linearGradient id="linear-gradient2" x1="1" y1="64.9" x2="2" y2="64.9" gradientTransform="translate(-3178.4 1130.4) rotate(70) scale(44.9 -44.9)" xlink:href="#linear-gradient"/>
    <clipPath id="clippath-6">
      <polygon class="st20" points="119.9 1.2 134.4 50.7 140.3 50.7 140.3 50.7 133.8 1.2 119.9 1.2"/>
    </clipPath>
    <clipPath id="clippath-7">
      <rect class="st20" x="112" y="-.8" width="36.2" height="53.5" transform="translate(-1 46.1) rotate(-20)"/>
    </clipPath>
    <linearGradient id="linear-gradient3" x1="1" y1="65.4" x2="2" y2="65.4" gradientTransform="translate(-3720.8 1343.5) rotate(70) scale(53.5 -53.5)" gradientUnits="userSpaceOnUse">
      <stop offset="0" stop-color="#977b66"/>
      <stop offset=".6" stop-color="#f7f29d"/>
      <stop offset=".6" stop-color="#f7f29d"/>
      <stop offset=".7" stop-color="#f8f3a4"/>
      <stop offset=".8" stop-color="#f8f5b6"/>
      <stop offset=".9" stop-color="#f8f8d4"/>
      <stop offset="1" stop-color="#f7f9fa"/>
    </linearGradient>
    <clipPath id="clippath-8">
      <polygon class="st20" points="106.8 21.9 124.8 50.7 132.3 50.7 116.5 7.2 106.8 21.9"/>
    </clipPath>
    <clipPath id="clippath-9">
      <rect class="st20" x="100.1" y="4.2" width="38.8" height="49.5" transform="translate(-2.7 42.6) rotate(-20)"/>
    </clipPath>
    <linearGradient id="linear-gradient4" x1="1" y1="64" x2="2" y2="64" gradientTransform="translate(-3209.8 1170.1) rotate(70) scale(46.2 -46.2)" xlink:href="#linear-gradient3"/>
    <clipPath id="clippath-10">
      <polygon class="st20" points="3.4 47.9 3.4 50.7 120.9 50.7 119.2 47.9 3.4 47.9"/>
    </clipPath>
    <clipPath id="clippath-11">
      <rect class="st20" x="6.4" y="27.9" width="111.4" height="42.9" transform="translate(-13.1 24.2) rotate(-20)"/>
    </clipPath>
    <linearGradient id="linear-gradient5" x1="1" y1="64.5" x2="2" y2="64.5" gradientTransform="translate(-3025.2 1106) rotate(70) scale(42.9 -42.9)" xlink:href="#linear-gradient3"/>
    <clipPath id="clippath-12">
      <path class="st20" d="M38.1,53.1v10.1c0,.7-.2,1.1-.7,1.1h-9.7c-.5,0-.7-.4-.7-1.1v-10.1h-3.4v10.1c0,1.2.4,2.3,1.2,3.2.8.9,1.8,1.3,3,1.3h9.7c1.2,0,2.2-.4,3-1.3.8-.9,1.2-2,1.2-3.2v-10.1h0s-3.5,0-3.5,0Z"/>
    </clipPath>
    <clipPath id="clippath-13">
      <rect class="st20" x="21.6" y="50.5" width="21.9" height="19.9" transform="translate(-18.7 14.8) rotate(-20)"/>
    </clipPath>
    <linearGradient id="linear-gradient6" x1=".9" y1="51.1" x2="1.9" y2="51.1" gradientTransform="translate(-1319 523.2) rotate(70) scale(18.8 -18.8)" gradientUnits="userSpaceOnUse">
      <stop offset="0" stop-color="#ae872e"/>
      <stop offset=".2" stop-color="#b48d2e"/>
      <stop offset=".5" stop-color="#c49a51"/>
      <stop offset=".5" stop-color="#c49a51"/>
      <stop offset="1" stop-color="#c4ad5b"/>
    </linearGradient>
    <clipPath id="clippath-14">
      <path class="st20" d="M47.9,53.1c-1.2,0-2.2.4-3,1.3-.8.9-1.2,2-1.2,3.2s.4,2.3,1.1,3.2c.8.9,1.8,1.4,3,1.4h9.2c.5,0,.7.4.7,1.1s-.3,1.1-.7,1.1h-12.6v3.4h12.6c1.2,0,2.2-.5,3-1.4.8-.9,1.1-1.9,1.1-3.2s-.4-2.3-1.1-3.2c-.8-.9-1.8-1.4-3-1.4h-9.2c-.5,0-.7-.4-.7-1.1s.3-1.1.7-1.1h12.6v-3.4h-12.6Z"/>
    </clipPath>
    <clipPath id="clippath-15">
      <rect class="st20" x="41.8" y="50.6" width="21.4" height="19.8" transform="translate(-17.5 21.6) rotate(-20)"/>
    </clipPath>
    <linearGradient id="linear-gradient7" x1=".9" y1="48.2" x2="1.9" y2="48.2" gradientTransform="translate(-1203.6 491.2) rotate(70) scale(17.4 -17.4)" xlink:href="#linear-gradient6"/>
    <clipPath id="clippath-16">
      <polygon class="st20" points="63 53.1 63 53.1 63 67.8 66.4 67.8 66.4 67.8 66.4 53.1 63 53.1"/>
    </clipPath>
    <clipPath id="clippath-17">
      <rect class="st20" x="60.6" y="53" width="8.2" height="15" transform="translate(-16.8 25.8) rotate(-20)"/>
    </clipPath>
    <linearGradient id="linear-gradient8" x1=".9" y1="42.8" x2="1.9" y2="42.8" gradientTransform="translate(-1012 429.8) rotate(70) scale(15 -15)" xlink:href="#linear-gradient6"/>
    <clipPath id="clippath-18">
      <polygon class="st20" points="80.8 53.1 80.8 62.9 72 53.1 68.6 53.1 68.6 53.1 68.6 67.8 72 67.8 72 57.9 80.8 67.8 84.2 67.8 84.2 67.8 84.2 53.1 80.8 53.1"/>
    </clipPath>
    <clipPath id="clippath-19">
      <rect class="st20" x="66.6" y="50.9" width="19.7" height="19.1" transform="translate(-16.1 29.8) rotate(-20)"/>
    </clipPath>
    <linearGradient id="linear-gradient9" x1=".9" y1="49.5" x2="1.9" y2="49.5" gradientTransform="translate(-1300.4 532.4) rotate(70) scale(19.1 -19.1)" xlink:href="#linear-gradient6"/>
    <clipPath id="clippath-20">
      <polygon class="st20" points="86.4 53.1 86.4 53.1 86.4 67.8 102 67.8 102 64.4 89.8 64.4 89.8 62.2 101.2 62.2 101.2 58.8 89.8 58.8 89.8 56.6 102 56.6 102 53.1 86.4 53.1"/>
    </clipPath>
    <clipPath id="clippath-21">
      <rect class="st20" x="84.4" y="50.9" width="19.7" height="19.1" transform="translate(-15 35.9) rotate(-20)"/>
    </clipPath>
    <linearGradient id="linear-gradient10" x1=".9" y1="48.6" x2="1.9" y2="48.6" gradientTransform="translate(-1282.2 532.3) rotate(70) scale(19.1 -19.1)" xlink:href="#linear-gradient6"/>
    <clipPath id="clippath-22">
      <path class="st20" d="M108.4,53.1c-1.2,0-2.2.4-3,1.3-.8.9-1.2,2-1.2,3.2s.4,2.3,1.1,3.2c.8.9,1.8,1.4,3,1.4h9.2c.5,0,.7.4.7,1.1s-.2,1.1-.7,1.1h-12.6v3.4h12.6c1.2,0,2.2-.5,3-1.4.7-.9,1.1-1.9,1.1-3.2s-.4-2.3-1.1-3.2c-.8-.9-1.8-1.4-3-1.4h-9.2c-.5,0-.7-.4-.7-1.1s.2-1.1.7-1.1h12.6v-3.4h-12.6Z"/>
    </clipPath>
    <clipPath id="clippath-23">
      <rect class="st20" x="102.3" y="50.6" width="21.4" height="19.8" transform="translate(-13.9 42.3) rotate(-20)"/>
    </clipPath>
    <linearGradient id="linear-gradient11" x1=".9" y1="44.9" x2="1.9" y2="44.9" gradientTransform="translate(-1143.6 491.3) rotate(70) scale(17.5 -17.5)" xlink:href="#linear-gradient6"/>
    <clipPath id="clippath-24">
      <path class="st20" d="M127.6,53.1c-1.2,0-2.2.4-3,1.3-.8.9-1.2,2-1.2,3.2s.4,2.3,1.1,3.2c.8.9,1.8,1.4,3,1.4h9.2c.5,0,.7.4.7,1.1s-.3,1.1-.7,1.1h-12.6v3.4h12.6c1.2,0,2.2-.5,3-1.4.8-.9,1.1-1.9,1.1-3.2s-.4-2.3-1.1-3.2c-.8-.9-1.8-1.4-3-1.4h-9.2c-.5,0-.7-.4-.7-1.1s.2-1.1.7-1.1h12.6v-3.4h-12.6Z"/>
    </clipPath>
    <clipPath id="clippath-25">
      <rect class="st20" x="121.5" y="50.6" width="21.4" height="19.8" transform="translate(-12.7 48.9) rotate(-20)"/>
    </clipPath>
    <linearGradient id="linear-gradient12" x1=".9" y1="43.9" x2="1.9" y2="43.9" gradientTransform="translate(-1123.9 491.2) rotate(70) scale(17.4 -17.4)" xlink:href="#linear-gradient6"/>
    <clipPath id="clippath-26">
      <path class="st20" d="M3.4,53.1h0v14.7h14.2c1.3,0,2.3-.4,3.1-1.3.7-.7,1.1-1.7,1.1-2.8s-.6-2.7-1.8-3.4c1-.8,1.5-1.8,1.5-3.2s-.3-2-1-2.8c-.8-.8-1.8-1.3-3.1-1.3H3.4ZM6.9,56.6h10.5c.5,0,.7.4.7,1.1s-.2,1.1-.7,1.1H6.9v-2.2ZM6.9,62.2h10.8c.5,0,.8.4.8,1.1s-.3,1.1-.8,1.1H6.9v-2.2Z"/>
    </clipPath>
    <clipPath id="clippath-27">
      <rect class="st20" x="1.5" y="50.4" width="22.2" height="20.1" transform="translate(-19.9 8) rotate(-20)"/>
    </clipPath>
    <linearGradient id="linear-gradient13" x1=".9" y1="52.4" x2="1.9" y2="52.4" gradientTransform="translate(-1352.4 527.8) rotate(70) scale(18.9 -18.9)" xlink:href="#linear-gradient6"/>
  </defs>
  <g id="layer1">
    <g class="st42">
      <g class="st21">
        <path class="st40" d="M-2751.3,1201.1V-3550.9s3672,0,3672,0V1201.1s-3672,0-3672,0Z"/>
      </g>
    </g>
    <g class="st37">
      <g class="st26">
        <g id="g151743">
          <path class="st13" d="M-2751.3,1201.1V-3550.9s3672,0,3672,0V1201.1s-3672,0-3672,0Z"/>
        </g>
      </g>
    </g>
    <g class="st7">
      <g class="st22">
        <path class="st0" d="M-2751.3,1201.1V-3550.9s3672,0,3672,0V1201.1s-3672,0-3672,0Z"/>
      </g>
    </g>
    <g class="st2">
      <g class="st3">
        <path class="st34" d="M-2751.3,1201.1V-3550.9s3672,0,3672,0V1201.1s-3672,0-3672,0Z"/>
      </g>
    </g>
    <g class="st24">
      <g class="st11">
        <path class="st30" d="M-2751.3,1201.1V-3550.9s3672,0,3672,0V1201.1s-3672,0-3672,0Z"/>
      </g>
    </g>
    <g class="st12">
      <g class="st17">
        <path class="st33" d="M-2751.3,1201.1V-3550.9s3672,0,3672,0V1201.1s-3672,0-3672,0Z"/>
      </g>
    </g>
    <g class="st29">
      <g class="st38">
        <path class="st35" d="M-2751.3,1201.1V-3550.9s3672,0,3672,0V1201.1s-3672,0-3672,0Z"/>
      </g>
    </g>
    <g class="st31">
      <g class="st5">
        <path class="st28" d="M-2751.3,1201.1V-3550.9s3672,0,3672,0V1201.1s-3672,0-3672,0Z"/>
      </g>
    </g>
    <g class="st36">
      <g class="st4">
        <path class="st18" d="M-2751.3,1201.1V-3550.9s3672,0,3672,0V1201.1s-3672,0-3672,0Z"/>
      </g>
    </g>
    <g class="st6">
      <g class="st32">
        <path class="st16" d="M-2751.3,1201.1V-3550.9s3672,0,3672,0V1201.1s-3672,0-3672,0Z"/>
      </g>
    </g>
    <g class="st23">
      <g class="st1">
        <path class="st8" d="M-2751.3,1201.1V-3550.9s3672,0,3672,0V1201.1s-3672,0-3672,0Z"/>
      </g>
    </g>
    <g class="st9">
      <g class="st10">
        <path class="st19" d="M-2751.3,1201.1V-3550.9s3672,0,3672,0V1201.1s-3672,0-3672,0Z"/>
      </g>
    </g>
    <g class="st41">
      <g class="st14">
        <path class="st25" d="M-2751.3,1201.1V-3550.9s3672,0,3672,0V1201.1s-3672,0-3672,0Z"/>
      </g>
    </g>
    <g class="st27">
      <g class="st15">
        <path class="st39" d="M-2751.3,1201.1V-3550.9s3672,0,3672,0V1201.1s-3672,0-3672,0Z"/>
      </g>
    </g>
  </g>
</svg>