<?xml version="1.0" encoding="UTF-8"?>
<svg id="Layer_1" xmlns="http://www.w3.org/2000/svg" version="1.1" viewBox="0 0 80 80">
  <!-- Generator: Adobe Illustrator 29.5.0, SVG Export Plug-In . SVG Version: 2.1.0 Build 137)  -->
  <defs>
    <style>
      .st0 {
        fill: #0d88ca;
      }

      .st0, .st1, .st2, .st3, .st4, .st5, .st6 {
        fill-rule: evenodd;
      }

      .st1 {
        fill: #d8702a;
      }

      .st2 {
        fill: #64b153;
      }

      .st3 {
        fill: #010101;
      }

      .st4 {
        fill: #6461a7;
      }

      .st5 {
        fill: #ad294b;
      }

      .st6 {
        fill: #ecb730;
      }
    </style>
  </defs>
  <g>
    <path class="st3" d="M29.9,65.4v-16.7h11c5.2-.2,10.6,1.1,10.6,4.3s-2.2,3.1-5.2,3.7h0c3.7.5,6.5,1.9,6.5,4.4s-7.3,4.5-11.8,4.3h-11.1ZM41.1,62.6c3,0,5-.3,5-2.2s-2-2.2-5-2.2h-4.9v4.4h4.9ZM41.1,55.4c2.6,0,4.1-.6,4.1-2s-1.5-2-4.1-2h-4.9v3.9h4.9ZM70.8,54.1c0-1.8-1.8-3.2-5.6-3.2s-5.6,3.8-5.6,6.1,1.1,6.1,5.6,6.1,5.6-1.4,5.6-3.2h6.7c-.3,4.2-5.6,5.8-12.3,5.8s-12.3-3.8-12.3-8.7,3.8-8.7,12.3-8.7,12,1.6,12.3,5.8h-6.7,0ZM1.9,31.5V14.3h9.9l3.7,11.7h0l3.6-11.7h9.7v17.3h-5.4v-14.4h0s-5.3,14.4-5.3,14.4h-5.6l-5-14.6h0v14.6H1.9ZM19.3,37.3c0-.6-.3-1-1.1-1.3-.7-.3-1.8-.5-3.2-.5s-3.6.6-3.6,1.4c0,1.1,2.7,1.4,4.8,1.7,5,.6,12.3.9,12.3,4.9s-6.2,4.6-13.1,4.6-13.1-1-13.2-5.1h8.3c0,1.4,2,2.2,5,2.2s4.4-.5,4.4-1.5c0-2-6.1-1.6-12.6-3-3-.7-4.5-2-4.5-3.6.3-3.5,6.5-4.5,12.8-4.5s12.5,1.1,12,4.7h-8.3Z"/>
    <path class="st1" d="M43.4,26l7.3,16.7-15.1-10.3c-3.8-2.5-3-6.8-.9-8.7,3-2.5,7.2-1.6,8.7,2.3h0Z"/>
    <path class="st5" d="M53.4,22.1l-2.7,18.7-7.6-17.8c-1.6-4.4,2-7.4,4.5-7.4,2.8-.3,6.3,1.8,5.7,6.5h0Z"/>
    <path class="st4" d="M64.9,22.9l-7.5,17.8-2.4-16.1c-.2-2.5,1.3-2.5,1.9-3-.1-.4-.9-.4-.9-.4h-1.4c-.2-4.2,3.1-6,5.8-5.8,2.9.1,6.1,3.4,4.6,7.4h0Z"/>
    <path class="st0" d="M72.6,32.3l-15.1,10.4,7.1-16.5c2.1-5.2,7.2-4.2,9-2.2,1.9,1.9,2.5,5.9-1,8.3h0Z"/>
    <path class="st2" d="M74.2,44.5h-17.4l14.2-9.9c3.5-2.3,7.2-.2,8.1,2.8,1,3.4-1.3,7.1-4.9,7.1h0Z"/>
    <path class="st6" d="M29,37.2c1.3-3.5,5-4.7,8.3-2.6l14.2,9.9h-17.2c-3.6,0-6.4-3.3-5.3-7.3Z"/>
  </g>
  <polygon class="st3" points="1.6 65.4 1.6 48.7 10.9 48.7 22.1 61.8 22.1 48.7 28.1 48.7 28.1 65.4 19.1 65.4 7.5 51.5 7.5 65.4 1.6 65.4"/>
</svg>