<?xml version="1.0" encoding="UTF-8"?>
<svg id="Layer_1" xmlns="http://www.w3.org/2000/svg" version="1.1" viewBox="0 0 705 104">
  <!-- Generator: Adobe Illustrator 29.3.1, SVG Export Plug-In . SVG Version: 2.1.0 Build 151)  -->
  <defs>
    <style>
      .st0 {
        fill: #069de0;
      }

      .st1 {
        fill: #ff7112;
      }

      .st2 {
        fill: #fccc12;
      }

      .st3 {
        fill: #6e55dc;
      }

      .st4 {
        fill: #05ac3f;
      }

      .st5 {
        fill: #ef1541;
      }
    </style>
  </defs>
  <path class="st3" d="M120,23.9l-24.3,55.6-7-48.3c-.9-6.6,10.3-10.6,10.3-10.6-1-2.3-4.5-2.2-4.5-2.2h-7.6c-1.2-11.9,9.6-20.6,21.2-17.9,11.4,2.5,15.6,15,11.9,23.4"/>
  <path class="st2" d="M74.8,97.5l-47.4-31.6c-12.1-8-24,.2-26.5,8.6-3.7,12.5,4.6,23,17.7,23h56.2Z"/>
  <path class="st5" d="M81,19.2c1.8-12.2-9.2-21.4-21.1-18.7-11.4,2.5-15.6,15-11.9,23.4l24.3,55.6,8.7-60.4h0Z"/>
  <path class="st1" d="M70.4,88.6l-23.4-53.2c-5.4-12.4-20-13.9-27.9-6.6-5.6,5.1-10,19,2.6,27.4l48.7,32.5h0Z"/>
  <path class="st4" d="M149.4,97.5c13.1,0,21.5-10.4,17.7-23-2.5-8.5-14.5-16.7-26.5-8.6l-47.4,31.6h56.2Z"/>
  <path class="st0" d="M146.3,56.2c12.6-8.4,8.2-22.3,2.6-27.4-8-7.2-22.5-5.7-27.9,6.6l-23.4,53.2,48.7-32.5h0Z"/>
  <path d="M261.3,2.6l-27.6,51.4L206,2.6h-22.2v94.9h20.9v-54l22.5,40.1h12.9l22.5-40.1v54h20.9V2.6h-22.3.1Z"/>
  <path d="M687.5,66.7l-.5-.6-.7-.8c-9.4,8-15.4,12.5-28.9,12.5h-.6c-18.6,0-30.2-14.5-30.2-27.8s13.6-27.8,30.3-27.8c13.4.1,20.6,7.3,24,10.8l.5.5.4-.4h0l.3-.4.6-.6,14.3-14.3c-1.7-1.7-15.1-17.7-40-17.7s-52.4,21.8-52.6,49.8c0,27.2,22.9,50.1,52.3,50.2,22.2,0,33.4-9.1,43.8-18l-13.1-15.3h.1Z"/>
  <path d="M595.6,67.6c0,25.8-20.7,29.9-33.6,29.9h-55.2V2.5h55.1c16.9,0,30.4,9.6,30.4,27.6s-6.3,13.8-11.1,16.2c7.8,3.9,14.3,9.8,14.3,21.3h0ZM527,20.4v18h32.5c5.4,0,11.3-2.2,11.3-8.9s-4.6-9.1-12-9.1c0,0-31.8,0-31.8,0ZM574.2,67.6c0-9.1-7.6-11.5-15-11.5h-32.2v22.7h33c6,0,14.2-2.1,14.2-11.2h0Z"/>
  <path d="M400.2,2.5h22.3l45.9,61.4V2.5h20.9v95h-22.3l-45.8-61.5v61.5h-20.9V2.5h-.1Z"/>
  <path d="M367.9,44c-16-6.8-44.3-1.6-44.2-14.6,0-5,7.4-9.3,19.1-9.4,13.2-.1,29.9,6.9,29.9,6.9l10.6-16.9S361.8,0,343.2,0c-28.4,0-41.7,12.5-41.7,28s9,22.3,13.8,24.7c15.8,7.7,33.4,5.6,42.9,10.4,10.4,5.2,6.3,17.6-15,15.9-15.7-1.3-25-4.4-36.2-11.1l-11.7,16.3c22,13.5,43.2,15.7,47.9,15.8,16.6,0,43.5-4.3,43.1-31.6-.2-11.1-5.6-19-18.4-24.4h0Z"/>
</svg>