<?xml version="1.0" encoding="UTF-8"?>
<svg id="Layer_1" xmlns="http://www.w3.org/2000/svg" version="1.1" viewBox="0 0 80 80">
  <!-- Generator: Adobe Illustrator 29.5.0, SVG Export Plug-In . SVG Version: 2.1.0 Build 137)  -->
  <defs>
    <style>
      .st0 {
        fill: #fff;
      }

      .st1 {
        fill: #cd2227;
      }
    </style>
  </defs>
  <rect class="st1" x="-.2" y="-.2" width="80.4" height="80.4"/>
  <g>
    <path class="st0" d="M17.7,30.9c10.3-.6,10.8,15,.7,15.2-10,.2-10.6-14.7-.7-15.2ZM17.6,33c-6.5.5-6.4,10.5,0,11s4.9-1.2,5.6-3.7c1.1-3.9-1.4-7.7-5.6-7.3Z"/>
    <path class="st0" d="M70.1,30.9c5-.3,8.6,3.8,8,8.7-1,8.1-12.8,8.8-14.9,1-1.3-4.8,1.9-9.4,6.9-9.7ZM70,33c-6.9.6-6.3,11.5,1,11,7-.5,6.4-11.6-1-11Z"/>
    <path class="st0" d="M62.4,34.5c-1.5-1.2-3.1-1.8-5.1-1.5-5.1.9-5.6,8.5-1.1,10.4,2.2,1,4.4.4,6.1-1.2v2.7c-.6.3-1.2.6-1.8.7-5.1,1.4-10-2.4-9.7-7.7s2.4-6.4,5.7-7,4.2-.2,5.8.9v2.6Z"/>
    <path class="st0" d="M4.2,39.8v5.8h-.1c0,.1-2.2.1-2.2.1v-14.6h4.3c.2,0,1,.2,1.2.3,2.9,1,3.7,5.1,1.4,7.2s-3,1.3-4.6,1.2ZM4.1,33.3v4.4h.1c0,.1,1.3.1,1.3.1,1.7,0,2.9-1.6,2.3-3.2s-2.5-1.5-3.7-1.3Z"/>
    <polygon class="st0" points="46.5 31.1 46.5 33.3 43.1 33.3 43.1 45.8 40.9 45.8 40.9 33.4 40.8 33.3 37.5 33.3 37.5 31.1 46.5 31.1"/>
    <path class="st0" d="M33.3,43.6v2.2h-6.6v-14.6h2.3v12.4h.1c0,.1,4,.1,4,.1,0,0,0,0,.1,0Z"/>
    <rect class="st0" x="34.3" y="31.1" width="2.3" height="14.6"/>
    <rect class="st0" x="47.4" y="31.1" width="2.3" height="14.6"/>
  </g>
</svg>