<?xml version="1.0" encoding="UTF-8"?>
<svg id="Layer_1" xmlns="http://www.w3.org/2000/svg" version="1.1" viewBox="0 0 602.3 92.2">
  <!-- Generator: Adobe Illustrator 29.3.1, SVG Export Plug-In . SVG Version: 2.1.0 Build 151)  -->
  <defs>
    <style>
      .st0 {
        fill: #00abe6;
      }

      .st1 {
        fill: #33261c;
      }
    </style>
  </defs>
  <path id="path6918" class="st0" d="M89.8,44.9c0,24.8-20.1,44.9-44.9,44.9S0,69.7,0,44.9,20.1,0,44.9,0s44.9,20.1,44.9,44.9"/>
  <path id="path42590" class="st1" d="M131.8,64.2c-7.1,0-11-4.3-11-12V13.5h-17.5v38.6c0,17,10.4,26.7,28.5,26.7s28.5-9.7,28.5-26.7V13.5h-17.5v38.7c0,7.6-3.9,12-11,12Z"/>
  <path id="path42586" class="st1" d="M191.3,78.8c15.4,0,25.4-8.2,25.4-20.3s-5.2-15.4-18.9-19.1l-4.8-1.3c-6.9-1.9-9.4-3.9-9.4-7s2.8-5,7.8-5,12.5,3.4,17.1,7.3l8.8-11c-6.9-6.2-16.1-10-25.9-10-14.8,0-25.2,8-25.2,20.3s6.2,15.7,17.7,18.7l4,1c8.6,2.3,11.5,4,11.5,7.4s-3,5.3-8.1,5.3c-7.5,0-13.8-2.7-18.8-7.3l-8.5,10.7c7.1,6.6,17,10.4,27.4,10.4h-.1Z"/>
  <path id="path42582" class="st1" d="M266.7,77.6h17.8l-23.5-64.1h-20.3l-23.5,64.1h17.3l4.1-12h24l4,12h.1ZM243.1,52.6l7.6-22.4,7.5,22.4h-15.2,0Z"/>
  <path id="path42578" class="st1" d="M318.4,77.6h17.5V27.6h19v-14.1h-55.6v14.1h19v49.9h.1Z"/>
  <path id="path42570" class="st1" d="M387.8,78.8c19.2,0,33.2-13.7,33.2-33.2s-14-33.3-33.2-33.3-33.3,13.9-33.3,33.3,14,33.2,33.3,33.2ZM387.8,64.3c-9.1,0-15.5-7.6-15.5-18.7s6.3-18.8,15.5-18.8,15.4,7.7,15.4,18.8-6.3,18.7-15.4,18.7Z"/>
  <path id="path42566" class="st1" d="M427.1,77.6h25.2c18.9,0,32.4-13.2,32.4-32s-13.5-32-32.4-32h-25.2v64.1h0ZM444.3,63.7V27.4h8c9.2,0,14.9,7.3,14.9,18.2s-5.7,18.2-14.9,18.2h-8Z"/>
  <path id="path42558" class="st1" d="M530.9,77.6h17.8l-23.5-64.1h-20.3l-23.5,64.1h17.3l4.1-12h24l4,12h0ZM507.3,52.6l7.6-22.4,7.5,22.4h-15.2.1Z"/>
  <path id="path42562" class="st1" d="M577.3,54.5l22.7-41h-19.8l-11.8,25.4-11.9-25.4h-19.8l22.7,41v23.1h17.8v-23.1h0Z"/>
</svg>