<?xml version="1.0" encoding="UTF-8"?>
<svg id="Layer_1" xmlns="http://www.w3.org/2000/svg" version="1.1" viewBox="0 0 80 80">
  <!-- Generator: Adobe Illustrator 29.5.0, SVG Export Plug-In . SVG Version: 2.1.0 Build 137)  -->
  <defs>
    <style>
      .st0 {
        fill: #4f9cd5;
      }

      .st1 {
        fill: #eaf0f5;
      }

      .st2 {
        fill: #fff;
      }

      .st3 {
        fill: #4793cf;
      }

      .st4 {
        fill: #4e99d3;
      }

      .st5 {
        fill: #e9f0f5;
      }

      .st6 {
        fill: #ecf0f6;
      }

      .st7 {
        fill: #448ecc;
      }

      .st8 {
        fill: #4591ce;
      }

      .st9 {
        fill: #e6eef6;
      }
    </style>
  </defs>
  <g>
    <ellipse class="st7" cx="40" cy="40" rx="39.8" ry="40"/>
    <path class="st5" d="M27.7,41.4c10.5-2,11.3,13,1.6,12.9-8.1-.2-8.3-11.6-1.6-12.9ZM29.4,44.1c-3.9.3-3.9,8,.9,7.1s2.8-7.4-.9-7.1Z"/>
    <path class="st6" d="M38,53.9v-12.1l.5-.5h5.1c.3,0,2.1.6,2.6.8,3.9,1.9,4.4,8.3.8,10.7s-2.2,1.1-2.3,1.1h-6.6ZM41.4,51.2c6.1,1.3,6.1-8.2,0-6.8v6.8Z"/>
    <path class="st5" d="M15,26.1v8c0,2.1,4.1,1.7,4.1.3v-8.3h3.7v9c0,0-.8,1.5-1,1.7-2.2,2.8-7.9,2.5-9.8-.7s-.7-1.9-.7-2v-8h3.7Z"/>
    <path class="st1" d="M62.7,53.9h-3.2s-1.1-2.1-1.1-2.1h-4.5c0,0-.8,2-.8,2h-3.3c.6-1.8,3.7-11.7,4.7-12.4s3.5-.3,3.9.2l4.2,12.2ZM57.6,49.2c0-.5-.9-4.5-1.7-3.7l-1,3.7h2.7Z"/>
    <path class="st9" d="M28.6,28.8s-.5.1-.5.6.5.7.5.7c12.4,2.2,3.8,13-4.1,6.6.8-4.6,4,.7,6.7-1.7.3-1.6-6.5-1.2-6.7-5.1s7.6-5.5,10.1-2.3l-1.5,2.1c-1.4-.7-2.9-1.8-4.5-.9Z"/>
    <path class="st1" d="M48.1,38.3h-3.3c0,0-1.3-2.3-1.3-2.3h-4c0,0-.9,2.2-.9,2.2l-3.4.2,4.4-12.1,4.2.2,4.2,11.9ZM42,29.8c-.8-.1-.5,0-.8.4s-1.1,3.1-.9,3.3h2.7l-1-3.7Z"/>
    <polygon class="st1" points="18.7 53.9 15.1 53.6 15.4 44.4 11.7 44.3 11.8 41.3 22.4 41.4 22.4 44.4 18.7 44.4 18.7 53.9"/>
    <path class="st8" d="M29.4,44.1c3.7-.3,4.3,6.4.9,7.1-4.8,1-4.8-6.7-.9-7.1Z"/>
    <path class="st3" d="M41.4,51.2v-6.8c6.1-1.4,6.1,8.1,0,6.8Z"/>
    <path class="st0" d="M57.6,49.2h-2.7s1-3.7,1-3.7c.8-.8,1.7,3.3,1.7,3.7Z"/>
    <path class="st4" d="M42,29.8l1,3.7h-2.7c-.2-.2.7-2.9.9-3.3s0-.6.8-.4Z"/>
  </g>
  <polyline class="st2" points="61.5 41.8 66.1 49.2 66.1 53.9 69.6 53.9 69.6 49.3 73.8 41.8 70.1 41.8 67.9 46.5 65.3 41.8 61.6 41.8"/>
</svg>