<?xml version="1.0" encoding="UTF-8"?>
<svg id="Layer_1" xmlns="http://www.w3.org/2000/svg" version="1.1" viewBox="0 0 256 256">
  <!-- Generator: Adobe Illustrator 29.5.0, SVG Export Plug-In . SVG Version: 2.1.0 Build 137)  -->
  <path d="M18.8,128.3c-1.1-3.7-10.6-.6-12.8,1.7s-1,5.1-3.3,4.4-1.7-5.1-1.7-6.1c-.4-12.1,5.8-20.7,17.9-22.2-1.2-10.5,1.4-24.1-.1-34.3-1.6-10.2-6.5-10.8-7.4-14.8-4.3-19,15.9-30.1,30.5-35.6l2.6,2c-4.7.7-11.4,7.2-12.1,11.8-2.3,14.4,7.3,14.6,11.1,24.3,3.8,9.6,2.2,13.2,2.2,19.4l25-24.4,23.8,23.8,2.2.6c5.5-9.2,15.5-16.2,22.7-24.4l21.7,20.4,1.1,4.4-.3,75.3-42.5,39.6-28.8-25.5-22.2,24.4-29.4-25v-39.9h-.2ZM54.8,75.6l-9.4,10.5v68.8c.7,5.7,13.4,12.2,17.2,17.1l6.7-8.3v-73.3l-14.4-14.9h0ZM116.4,174.3v-87.1l-11.6-11.6-8.4,8.2-.8,71.9,20.9,18.5h0Z"/>
  <path d="M195.1,92.2c1.2-.6,6.7-5.7,6.7-6.1v-23.8h3.3v18.9l26.2-26.5,22.6,20.4,1.1,4.4-.7,87.1-35.5,27.7c-4-3.9-8.1-8.8-13.9-10v43.3l-11.5-9.9-23,22.1c-3.1-.9-1.1-2.2-1.1-2.8v-52.1l-2.3-1.2c-7.5,2.6-14,7.1-19.3,12.9-1.9.2-1.7,0-1.7-1.7.1-13.5,11-27.4,23.3-32.2v-39.4c-5.2-.1-10-.9-13.9,3.4-3.9,4.3-.4,5.4-5,4.3-4-13.8,2.3-27.5,17.9-27.1,1.4-1,1.4-17.3,1.1-20.1-.6-4.5-4.1-5.7-7.4-8.1-2.4-.3-6.9,9-9.2,1.6l22.8-22.6,19.3,17.1v20.5h.1ZM228.4,172.1v-87.1c0-.8-10.6-10.8-12.6-10.4l-10.1,11-.4,74.8c.7,2,9.8,3,12.5,4.1,4.1,1.8,7.2,5.1,10.6,7.7h0ZM201.8,91.1c-3.8.3-6.5,4.9-6.7,8.3l.6,114.8,6.1,4.4v-127.6Z"/>
</svg>