<?xml version="1.0" encoding="UTF-8"?>
<svg id="Layer_1" xmlns="http://www.w3.org/2000/svg" version="1.1" viewBox="0 0 256 256">
  <!-- Generator: Adobe Illustrator 29.3.1, SVG Export Plug-In . SVG Version: 2.1.0 Build 151)  -->
  <defs>
    <style>
      .st0 {
        fill: #fff;
      }
    </style>
  </defs>
  <path d="M27,128.5c-1-3.3-9.6-.5-11.5,1.5s-.9,4.6-3,4-1.5-4.6-1.5-5.5c-.4-10.9,5.2-18.7,16.1-20-1.1-9.5,1.3-21.7-.1-30.9s-5.9-9.7-6.7-13.3c-3.9-17.1,14.3-27.1,27.5-32.1l2.3,1.8c-4.2.6-10.3,6.5-10.9,10.6-2.1,13,6.6,13.2,10,21.9s2,11.9,2,17.5l22.5-22,21.5,21.5,2,.5c5-8.3,14-14.6,20.5-22l19.6,18.4,1,4-.3,67.9-38.3,35.7-26-23-20,22-26.5-22.5v-36ZM59.5,81l-8.5,9.5v62c.6,5.1,12.1,11,15.5,15.4l6-7.5v-66.1c0,0-13-13.4-13-13.4ZM115,170v-78.5l-10.5-10.5-7.6,7.4-.7,64.8,18.8,16.7Z"/>
  <path class="st0" d="M59.5,81l13.1,13.4v66.1c0,0-6.1,7.5-6.1,7.5-3.3-4.4-14.9-10.3-15.5-15.4v-62c0,0,8.6-9.5,8.6-9.5Z"/>
  <polygon class="st0" points="115 170 96.2 153.3 96.9 88.4 104.5 81 115 91.5 115 170"/>
  <path class="st0" d="M216,168c-3.1-2.3-5.9-5.3-9.6-6.9s-10.7-2-11.3-3.7l.4-67.4,9.1-9.9c1.7-.3,11.4,8.7,11.4,9.4v78.5Z"/>
  <g>
    <path d="M186,96c1.1-.5,6-5.1,6-5.5v-21.5h3v17l23.6-23.9,20.4,18.4,1,4-.6,78.5-32,25c-3.6-3.5-7.3-7.9-12.5-9v39l-10.4-8.9-20.7,19.9c-2.8-.8-1-2-1-2.5v-47l-2.1-1.1c-6.8,2.3-12.6,6.4-17.4,11.6-1.7.2-1.5,0-1.5-1.5.1-12.2,9.9-24.7,21-29v-35.5c-4.7-.1-9-.8-12.5,3.1s-.4,4.9-4.5,3.9c-3.6-12.4,2.1-24.8,16.1-24.4,1.3-.9,1.3-15.6,1-18.1-.5-4.1-3.7-5.1-6.7-7.3-2.2-.3-6.2,8.1-8.3,1.4l20.6-20.4,17.4,15.4v18.5ZM216,168v-78.5c0-.7-9.6-9.7-11.4-9.4l-9.1,9.9-.4,67.4c.6,1.8,8.8,2.7,11.3,3.7,3.7,1.6,6.5,4.6,9.6,6.9ZM192,95c-3.4.3-5.9,4.4-6,7.5l.5,103.5,5.5,4v-115Z"/>
    <path class="st0" d="M192,95v115l-5.5-4-.5-103.5c.1-3.1,2.6-7.2,6-7.5Z"/>
  </g>
</svg>