<?xml version="1.0" encoding="UTF-8"?>
<svg id="Layer_1" xmlns="http://www.w3.org/2000/svg" version="1.1" viewBox="0 0 80 80">
  <!-- Generator: Adobe Illustrator 29.5.0, SVG Export Plug-In . SVG Version: 2.1.0 Build 137)  -->
  <defs>
    <style>
      .st0 {
        fill: #772b90;
      }

      .st1 {
        fill: #fff;
      }
    </style>
  </defs>
  <g id="g4139">
    <path id="path4141" class="st0" d="M63.2,32.6c-.9,0-4.4.9-5.6,1.1-1.3.3-13.1,9.4-13.9,11.7-.2.8-.3,2-.3,3.1v1.8c0,1.3.3,3.4.4,4.5.8.2,6.4,0,7.4.2v2.3c-1.1,0-8.3,0-12.3,0s-8.7.2-10.7.2l.4-2.2c1.1,0,5.7.2,6.8-.9.5-.5.3-1.1.3-4.2v-1.5c0-.7,0-2-.2-3.2-.4-1.3-10.8-14.2-13.5-16.3-.8-.3-5.6-.7-6.8-1v-2c.5-.3,5.9,0,11.2-.1,3.4-.1,11.3,0,12.3.1l-.2,1.7c-1,.3-6,.4-7.3.7,3.4,5,8.7,11.4,10.4,13.9.9-1.4,9.3-7.1,9.5-9.1-1.3-.3-5.6-.9-6.3-.9l-.4-2.3c1.2-.2,7.3,0,10.4,0s8.3,0,9.9.1l-1.5,2.1ZM40,10.2C16.6,10.2.2,22.4.2,40s16.4,29.8,39.8,29.8,39.8-12.3,39.8-29.8S63.4,10.2,40,10.2"/>
  </g>
  <g id="g4143">
    <path id="path4145" class="st1" d="M63.2,32.6c-.9,0-4.4.9-5.6,1.1-1.3.3-13.1,9.4-13.9,11.7-.2.8-.3,2-.3,3.1v1.8c0,1.3.3,3.4.4,4.5.8.2,6.4,0,7.4.2v2.3c-1.1,0-8.3,0-12.3,0s-8.7.2-10.7.2l.4-2.2c1.1,0,5.7.2,6.8-.9.5-.5.3-1.1.3-4.2v-1.5c0-.7,0-2-.2-3.2-.4-1.3-10.8-14.2-13.5-16.3-.8-.3-5.6-.7-6.8-1v-2c.5-.3,5.9,0,11.2-.1,3.4-.1,11.3,0,12.3.1l-.2,1.7c-1,.3-6,.4-7.3.7,3.4,5,8.7,11.4,10.4,13.9.9-1.4,9.3-7.1,9.5-9.1-1.3-.3-5.6-.9-6.3-.9l-.4-2.3c1.2-.2,7.3,0,10.4,0s8.3,0,9.9.1l-1.5,2.1Z"/>
  </g>
</svg>